<svg width="12" height="12" viewBox="0 0 12 12" fill="none" xmlns="http://www.w3.org/2000/svg">
<path d="M4.3129 0.199636C4.38289 0.284979 4.42576 0.389297 4.43601 0.499188C4.44626 0.609078 4.42341 0.719523 4.37041 0.816333C3.9546 1.57919 3.73756 2.43444 3.73929 3.30325C3.73929 6.19338 6.09557 8.53367 8.99959 8.53367C9.37913 8.53319 9.74645 8.49485 10.1015 8.41867C10.2102 8.39543 10.3232 8.40456 10.4267 8.44493C10.5302 8.4853 10.6196 8.55514 10.6838 8.64579C10.7517 8.74014 10.7864 8.85436 10.7823 8.97053C10.7783 9.0867 10.7358 9.19824 10.6615 9.28765C10.0977 9.98009 9.38645 10.538 8.57965 10.9207C7.77285 11.3035 6.8908 11.5014 5.99781 11.5C2.68406 11.5 0 8.83052 0 5.54147C0 3.06605 1.51958 0.942835 3.68322 0.0429461C3.79096 -0.00283889 3.91068 -0.0123131 4.02428 0.0159553C4.13788 0.0442238 4.23919 0.108699 4.3129 0.199636ZM3.49201 0.942116C2.66011 1.3884 1.96465 2.0517 1.47952 2.86153C0.994397 3.67136 0.737728 4.59747 0.736788 5.54147C0.736788 8.43088 3.09379 10.7712 5.99781 10.7712C6.6932 10.7722 7.38191 10.6354 8.0241 10.3687C8.6663 10.102 9.24925 9.71059 9.73926 9.21721C9.49678 9.2474 9.25022 9.26249 8.99959 9.26249C5.68585 9.26249 3.0025 6.59301 3.0025 3.30396C3.0025 2.46517 3.17645 1.66663 3.49201 0.942116Z" fill="black"/>
<path d="M7.75894 2.26247C7.76925 2.23134 7.7891 2.20425 7.81569 2.18506C7.84227 2.16586 7.87423 2.15553 7.90702 2.15553C7.93981 2.15553 7.97177 2.16586 7.99835 2.18506C8.02493 2.20425 8.04479 2.23134 8.05509 2.26247L8.33328 3.09767C8.45763 3.46999 8.74947 3.7618 9.12182 3.88615L9.95709 4.16431C9.98821 4.17462 10.0153 4.19447 10.0345 4.22105C10.0537 4.24763 10.064 4.27958 10.064 4.31237C10.064 4.34516 10.0537 4.37712 10.0345 4.4037C10.0153 4.43028 9.98821 4.45013 9.95709 4.46044L9.12182 4.7386C8.93807 4.79958 8.7711 4.90261 8.6342 5.0395C8.4973 5.17639 8.39426 5.34335 8.33328 5.52708L8.05509 6.36228C8.04479 6.39341 8.02493 6.42049 7.99835 6.43969C7.97177 6.45889 7.93981 6.46922 7.90702 6.46922C7.87423 6.46922 7.84227 6.45889 7.81569 6.43969C7.7891 6.42049 7.76925 6.39341 7.75894 6.36228L7.48076 5.52708C7.41978 5.34335 7.31673 5.17639 7.17983 5.0395C7.04294 4.90261 6.87597 4.79958 6.69222 4.7386L5.85695 4.46044C5.82582 4.45013 5.79873 4.43028 5.77953 4.4037C5.76033 4.37712 5.75 4.34516 5.75 4.31237C5.75 4.27958 5.76033 4.24763 5.77953 4.22105C5.79873 4.19447 5.82582 4.17462 5.85695 4.16431L6.69222 3.88615C6.87597 3.82517 7.04294 3.72213 7.17983 3.58525C7.31673 3.44836 7.41978 3.2814 7.48076 3.09767L7.75894 2.26247ZM9.96499 0.0709661C9.97209 0.0505003 9.98539 0.0327538 10.003 0.020194C10.0207 0.00763411 10.0418 0.00088501 10.0635 0.00088501C10.0851 0.00088501 10.1063 0.00763411 10.1239 0.020194C10.1416 0.0327538 10.1549 0.0505003 10.1619 0.0709661L10.3474 0.627287C10.4301 0.875978 10.6249 1.07076 10.8736 1.15342L11.4299 1.33886C11.4504 1.34596 11.4682 1.35925 11.4807 1.3769C11.4933 1.39455 11.5 1.41567 11.5 1.43733C11.5 1.45899 11.4933 1.48011 11.4807 1.49776C11.4682 1.51541 11.4504 1.52871 11.4299 1.5358L10.8736 1.72124C10.7511 1.76221 10.6399 1.83106 10.5485 1.92236C10.4572 2.01366 10.3884 2.12492 10.3474 2.24737L10.1619 2.80369C10.1549 2.82416 10.1416 2.84191 10.1239 2.85447C10.1063 2.86703 10.0851 2.87378 10.0635 2.87378C10.0418 2.87378 10.0207 2.86703 10.003 2.85447C9.98539 2.84191 9.97209 2.82416 9.96499 2.80369L9.77954 2.24737C9.73856 2.12492 9.66971 2.01366 9.5784 1.92236C9.48709 1.83106 9.37582 1.76221 9.25336 1.72124L8.697 1.5358C8.67653 1.52871 8.65878 1.51541 8.64622 1.49776C8.63366 1.48011 8.62691 1.45899 8.62691 1.43733C8.62691 1.41567 8.63366 1.39455 8.64622 1.3769C8.65878 1.35925 8.67653 1.34596 8.697 1.33886L9.25336 1.15342C9.50207 1.07076 9.69687 0.875978 9.77954 0.627287L9.96499 0.0709661Z" fill="black"/>
</svg>
